<svg xmlns="http://www.w3.org/2000/svg" viewBox="-5 -5 566 451">
  <path d="M257 56c0 1 0 1 0 2l-17 66c-1 3-4 6-7 6l-99 1c0 0 0 0 0 0H35c-3 0-6-2-7-6l-17-66c0-1 0-2 0-2C5 55 0 49 0 42c0-9 7-16 16-16S32 33 32 42c0 5-2 9-6 12l21 21c5 5 12 8 20 8 9 0 17-4 22-11l34-45C120 24 118 20 118 16c0-9 7-16 16-16s16 7 16 16c0 4-2 8-4 11 0 0 0 0 0 0l34 45c5 7 14 11 22 11 7 0 15-3 20-8l21-21C238 51 236 46 236 42c0-9 7-16 16-16s16 7 16 16C268 48 263 54 257 56zM239 154c0-4-3-8-8-8h-194c-4 0-8 3-8 8v18c0 4 3 8 8 8h194c4 0 8-3 8-8V154z" stroke="#000" stroke-width="7" fill="#fff"/>
  <path d="M462 320C468 320 474 320 480 321 527 323 552 351 556 404H233C239 388 254 360 298 360H303C337 360 375 360 406 354 424 351 437 348 446 341 457 334 461 327 463 320ZM48 233C62 237 89 243 121 243 172 243 195 237 204 232 209 235 213 239 218 242L197 268 210 279 232 252C237 254 240 257 244 260L223 286 237 297 259 270C263 272 266 274 270 276L249 303 262 314 285 285C343 316 384 319 444 321 439 330 425 336 403 340 373 344 336 344 303 344H298C260 344 239 363 228 378 221 388 217 398 216 405H143C141 347 95 298 36 294 42 266 46 245 48 234ZM33 308C84 311 123 352 125 403H25C25 369 30 336 33 308ZM554 441H24V420H554V441Z" stroke="#000" stroke-width="7" fill="#fff"/>
</svg>